<svg version="1.1" viewBox="0.0 0.0 316.8005249343832 288.0" fill="none" stroke="none" stroke-linecap="square" stroke-miterlimit="10" xmlns:xlink="http://www.w3.org/1999/xlink" xmlns="http://www.w3.org/2000/svg"><clipPath id="p.0"><path d="m0 0l316.80054 0l0 288.0l-316.80054 0l0 -288.0z" clip-rule="nonzero"/></clipPath><g clip-path="url(#p.0)"><path fill="#000000" fill-opacity="0.0" d="m0 0l316.80054 0l0 288.0l-316.80054 0z" fill-rule="evenodd"/><path fill="#000000" fill-opacity="0.0" d="m264.06165 34.02857l0 0c0 -11.66321 9.454895 -21.118109 21.118103 -21.118109l0 0c5.600891 0 10.972351 2.2249365 14.93277 6.1853504c3.9604187 3.960415 6.185364 9.331888 6.185364 14.932758l0 0c0 11.663212 -9.454895 21.11811 -21.118134 21.11811l0 0c-11.663208 0 -21.118103 -9.454899 -21.118103 -21.11811z" fill-rule="evenodd"/><path stroke="#ffffff" stroke-width="16.0" stroke-linejoin="round" stroke-linecap="butt" d="m264.06165 34.02857l0 0c0 -11.66321 9.454895 -21.118109 21.118103 -21.118109l0 0c5.600891 0 10.972351 2.2249365 14.93277 6.1853504c3.9604187 3.960415 6.185364 9.331888 6.185364 14.932758l0 0c0 11.663212 -9.454895 21.11811 -21.118134 21.11811l0 0c-11.663208 0 -21.118103 -9.454899 -21.118103 -21.11811z" fill-rule="evenodd"/><path fill="#000000" fill-opacity="0.0" d="m52.741444 34.02857l211.30708 0" fill-rule="evenodd"/><path stroke="#ffffff" stroke-width="16.0" stroke-linejoin="round" stroke-linecap="butt" d="m52.741444 34.02857l211.30708 0" fill-rule="evenodd"/><path fill="#000000" fill-opacity="0.0" d="m46.55609 48.961327l91.65355 190.07874" fill-rule="evenodd"/><path stroke="#ffffff" stroke-width="16.0" stroke-linejoin="round" stroke-linecap="butt" d="m46.55609 48.961327l91.65355 190.07874" fill-rule="evenodd"/><path fill="#000000" fill-opacity="0.0" d="m270.247 48.961327l-102.17323 190.07874" fill-rule="evenodd"/><path stroke="#ffffff" stroke-width="16.0" stroke-linejoin="round" stroke-linecap="butt" d="m270.247 48.961327l-102.17323 190.07874" fill-rule="evenodd"/><path fill="#000000" fill-opacity="0.0" d="m153.21388 36.1598l-0.06298828 196.69292" fill-rule="evenodd"/><path stroke="#ffffff" stroke-width="16.0" stroke-linejoin="round" stroke-linecap="butt" d="m153.21388 36.1598l-0.06298828 196.69292" fill-rule="evenodd"/><path fill="#000000" fill-opacity="0.0" d="m153.9717 36.176205l0 0c-57.390587 -0.40439224 -105.51824 43.23396 -110.717606 100.38995c-5.1993675 57.156006 34.264076 108.762344 90.78558 118.72031l19.154175 -108.7193z" fill-rule="evenodd"/><path fill="#000000" fill-opacity="0.0" d="m153.9717 36.176205l0 0c-57.390587 -0.40439224 -105.51824 43.23396 -110.717606 100.38995c-5.1993675 57.156006 34.264076 108.762344 90.78558 118.72031" fill-rule="evenodd"/><path stroke="#ffffff" stroke-width="16.0" stroke-linejoin="round" stroke-linecap="butt" d="m153.9717 36.176205l0 0c-57.390587 -0.40439224 -105.51824 43.23396 -110.717606 100.38995c-5.1993675 57.156006 34.264076 108.762344 90.78558 118.72031" fill-rule="evenodd"/><path fill="#000000" fill-opacity="0.0" d="m10.505222 34.02857l0 0c0 -11.66321 9.454901 -21.118109 21.11811 -21.118109l0 0c5.600872 0 10.972343 2.2249365 14.932758 6.1853504c3.960415 3.960415 6.1853523 9.331888 6.1853523 14.932758l0 0c0 11.663212 -9.454903 21.11811 -21.11811 21.11811l0 0c-11.66321 0 -21.11811 -9.454899 -21.11811 -21.11811z" fill-rule="evenodd"/><path stroke="#ffffff" stroke-width="16.0" stroke-linejoin="round" stroke-linecap="butt" d="m10.505222 34.02857l0 0c0 -11.66321 9.454901 -21.118109 21.11811 -21.118109l0 0c5.600872 0 10.972343 2.2249365 14.932758 6.1853504c3.960415 3.960415 6.1853523 9.331888 6.1853523 14.932758l0 0c0 11.663212 -9.454903 21.11811 -21.11811 21.11811l0 0c-11.66321 0 -21.11811 -9.454899 -21.11811 -21.11811z" fill-rule="evenodd"/><path fill="#000000" fill-opacity="0.0" d="m132.03278 253.97083l0 0c0 -11.663208 9.45491 -21.118103 21.118118 -21.118103l0 0c5.600876 0 10.972336 2.2249298 14.9327545 6.1853485c3.9604187 3.9604034 6.1853485 9.331879 6.1853485 14.9327545l0 0c0 11.663208 -9.454895 21.118103 -21.118103 21.118103l0 0c-11.663208 0 -21.118118 -9.454895 -21.118118 -21.118103z" fill-rule="evenodd"/><path stroke="#ffffff" stroke-width="16.0" stroke-linejoin="round" stroke-linecap="butt" d="m132.03278 253.97083l0 0c0 -11.663208 9.45491 -21.118103 21.118118 -21.118103l0 0c5.600876 0 10.972336 2.2249298 14.9327545 6.1853485c3.9604187 3.9604034 6.1853485 9.331879 6.1853485 14.9327545l0 0c0 11.663208 -9.454895 21.118103 -21.118103 21.118103l0 0c-11.663208 0 -21.118118 -9.454895 -21.118118 -21.118103z" fill-rule="evenodd"/><path fill="#000000" fill-opacity="0.0" d="m152.41599 36.176205l0 0c57.39058 -0.40439224 105.51825 43.23396 110.71762 100.38995c5.199341 57.156006 -34.264084 108.762344 -90.7856 118.72031l-19.15416 -108.7193z" fill-rule="evenodd"/><path fill="#000000" fill-opacity="0.0" d="m152.41599 36.176205l0 0c57.39058 -0.40439224 105.51825 43.23396 110.71762 100.38995c5.199341 57.156006 -34.264084 108.762344 -90.7856 118.72031" fill-rule="evenodd"/><path stroke="#ffffff" stroke-width="16.0" stroke-linejoin="round" stroke-linecap="butt" d="m152.41599 36.176205l0 0c57.39058 -0.40439224 105.51825 43.23396 110.71762 100.38995c5.199341 57.156006 -34.264084 108.762344 -90.7856 118.72031" fill-rule="evenodd"/></g></svg>