<?xml version="1.0" standalone="no"?>
<!DOCTYPE svg PUBLIC "-//W3C//DTD SVG 20010904//EN"
 "http://www.w3.org/TR/2001/REC-SVG-20010904/DTD/svg10.dtd">
<svg version="1.0" xmlns="http://www.w3.org/2000/svg"
 width="280.000000pt" height="280.000000pt" viewBox="0 0 280.000000 280.000000"
 preserveAspectRatio="xMidYMid meet">
<metadata>
Created by potrace 1.10, written by Peter Selinger 2001-2011
</metadata>
<g transform="translate(0.000000,280.000000) scale(0.100000,-0.100000)"
fill="#000000" stroke="none">
<path d="M60 2499 c0 -4 8 -17 18 -30 10 -13 38 -58 62 -99 25 -41 96 -158
158 -260 63 -102 116 -187 117 -190 2 -3 -9 -33 -25 -67 -31 -67 -64 -170 -81
-254 -12 -61 -15 -303 -4 -370 10 -70 54 -215 86 -285 123 -272 372 -500 644
-589 154 -50 153 -50 365 -50 212 0 211 0 365 50 275 90 519 315 647 597 28
61 72 207 83 278 10 58 10 282 0 340 -12 75 -56 220 -86 283 -15 33 -27 63
-25 66 2 3 55 89 118 191 62 102 133 219 158 260 24 41 52 86 62 99 10 13 18
26 18 30 0 3 -603 6 -1340 6 -737 0 -1340 -3 -1340 -6z m2568 -38 c17 0 32 -6
32 -11 0 -6 -65 -118 -144 -249 -80 -131 -150 -249 -156 -263 -10 -21 -6 -39
25 -119 70 -178 78 -224 78 -424 0 -174 -1 -183 -32 -285 -113 -365 -365 -620
-728 -737 -85 -27 -94 -28 -303 -28 -205 0 -219 1 -302 27 -173 53 -369 175
-483 299 -108 117 -203 290 -250 454 -21 70 -28 121 -32 231 -8 186 10 284 89
481 23 58 26 77 18 98 -6 15 -75 134 -155 266 -80 131 -145 244 -145 251 0 11
230 13 1228 12 675 -1 1242 -2 1260 -3z"/>
<path d="M333 2386 c-46 -21 -43 -47 19 -147 28 -46 62 -102 74 -125 33 -56
68 -87 92 -80 10 4 48 39 84 79 36 40 92 92 124 117 200 150 189 163 -136 167
-180 3 -231 0 -257 -11z m481 -49 c-22 -12 -58 -35 -80 -52 -49 -37 -172 -159
-205 -203 l-25 -33 -23 43 c-13 24 -39 66 -57 95 -19 28 -34 55 -34 59 0 4 -6
15 -13 23 -8 9 -24 33 -36 54 l-23 37 269 0 268 -1 -41 -22z"/>
<path d="M1982 2389 c-36 -11 -48 -29 -35 -52 4 -8 49 -47 99 -85 51 -39 120
-103 155 -141 73 -82 92 -91 124 -61 33 31 175 272 175 298 0 41 -31 47 -265
49 -121 1 -235 -3 -253 -8z m477 -66 c-12 -21 -28 -45 -36 -54 -7 -8 -13 -19
-13 -23 0 -4 -15 -31 -34 -59 -18 -29 -44 -72 -57 -95 l-24 -44 -15 24 c-20
31 -166 176 -214 213 -22 17 -58 40 -80 52 l-41 22 268 1 269 0 -23 -37z"/>
<path d="M1175 2370 c-167 -38 -334 -129 -458 -249 -84 -81 -157 -176 -157
-204 0 -12 67 -132 148 -267 82 -135 240 -396 351 -580 112 -184 217 -348 233
-363 l30 -29 22 21 21 22 0 813 c0 786 -1 815 -19 835 -23 26 -61 26 -171 1z
m155 -842 c0 -812 -1 -832 -19 -803 -20 34 -36 60 -105 177 -27 46 -55 90 -61
98 -7 8 -24 35 -37 60 -35 62 -140 234 -147 240 -3 3 -16 25 -29 50 -13 25
-41 72 -62 105 -22 33 -47 74 -56 92 -8 18 -22 37 -30 44 -8 6 -14 15 -14 20
0 5 -29 56 -65 114 -36 57 -65 107 -65 111 0 3 -11 20 -25 38 -14 18 -25 36
-25 41 0 12 96 127 147 176 167 159 306 222 586 268 4 0 7 -374 7 -831z"/>
<path d="M1453 2363 c-17 -25 -18 -78 -18 -835 0 -803 0 -808 21 -828 l20 -21
26 21 c15 11 37 39 51 63 23 40 141 235 387 637 225 369 300 497 300 514 0 55
-173 239 -302 323 -93 60 -211 110 -318 134 -119 26 -146 25 -167 -8z m129
-23 c124 -19 287 -90 388 -168 90 -70 240 -231 240 -257 0 -5 -11 -23 -25 -41
-14 -18 -25 -35 -25 -38 0 -4 -29 -54 -65 -111 -36 -58 -65 -109 -65 -114 0
-5 -6 -14 -14 -20 -8 -7 -22 -26 -30 -44 -9 -18 -34 -59 -56 -92 -21 -33 -49
-80 -62 -105 -13 -25 -26 -47 -29 -50 -7 -6 -112 -178 -147 -240 -13 -25 -30
-52 -37 -60 -6 -8 -34 -52 -61 -98 -69 -117 -85 -143 -105 -177 -18 -29 -19
-9 -19 803 l0 832 23 -5 c12 -3 52 -9 89 -15z"/>
<path d="M477 1748 c-75 -101 -89 -464 -25 -652 93 -275 301 -503 557 -611
181 -76 321 -85 321 -20 0 7 -64 118 -141 246 -78 129 -167 277 -199 329 -31
52 -108 178 -170 280 -62 102 -142 234 -178 293 -66 109 -111 167 -131 167 -5
0 -21 -15 -34 -32z m89 -78 c4 -8 22 -39 41 -68 18 -29 33 -55 33 -58 0 -3 13
-24 29 -47 34 -51 60 -93 82 -132 9 -16 48 -82 87 -145 40 -63 83 -135 97
-160 14 -25 38 -65 54 -90 15 -25 65 -106 110 -180 45 -74 86 -142 91 -150 5
-8 22 -35 37 -60 15 -25 40 -63 54 -85 15 -22 26 -42 24 -46 -13 -20 -269 55
-365 108 -253 140 -449 417 -487 690 -10 74 -10 232 0 303 7 51 43 184 54 204
5 7 40 -43 59 -84z"/>
<path d="M2251 1751 c-15 -16 -61 -85 -101 -153 -41 -68 -86 -141 -100 -163
-15 -22 -50 -78 -77 -125 -28 -47 -101 -168 -163 -270 -240 -394 -340 -563
-340 -576 0 -15 27 -44 43 -45 99 -9 287 56 427 146 170 110 303 272 383 468
50 122 62 191 62 367 0 180 -22 303 -63 351 -30 36 -37 36 -71 0z m70 -78 c34
-127 44 -293 26 -426 -38 -273 -234 -550 -487 -690 -96 -53 -352 -128 -365
-108 -2 4 9 24 24 46 14 22 39 60 54 85 15 25 32 52 37 60 5 8 46 76 91 150
45 74 95 155 110 180 16 25 40 65 54 90 14 25 57 97 97 160 39 63 78 129 87
145 22 39 48 81 82 132 16 23 29 44 29 47 0 5 37 67 78 131 6 11 20 35 29 53
21 41 30 32 54 -55z"/>
</g>
</svg>
